<?xml version="1.0" encoding="utf-8" standalone="no"?>
<!DOCTYPE svg PUBLIC "-//W3C//DTD SVG 1.1//EN"
  "http://www.w3.org/Graphics/SVG/1.1/DTD/svg11.dtd">
<svg xmlns:xlink="http://www.w3.org/1999/xlink" width="475.2pt" height="273.6pt" viewBox="0 0 475.2 273.6" xmlns="http://www.w3.org/2000/svg" version="1.1">
 <metadata>
  <rdf:RDF xmlns:dc="http://purl.org/dc/elements/1.1/" xmlns:cc="http://creativecommons.org/ns#" xmlns:rdf="http://www.w3.org/1999/02/22-rdf-syntax-ns#">
   <cc:Work>
    <dc:type rdf:resource="http://purl.org/dc/dcmitype/StillImage"/>
    <dc:date>2026-09-28T07:02:58.317865</dc:date>
    <dc:format>image/svg+xml</dc:format>
    <dc:creator>
     <cc:Agent>
      <dc:title>Matplotlib v3.10.8, https://matplotlib.org/</dc:title>
     </cc:Agent>
    </dc:creator>
   </cc:Work>
  </rdf:RDF>
 </metadata>
 <defs>
  <style type="text/css">*{stroke-linejoin: round; stroke-linecap: butt}</style>
 </defs>
 <g id="figure_1">
  <g id="patch_1">
   <path d="M 0 273.6 
L 475.2 273.6 
L 475.2 0 
L 0 0 
z
" style="fill: #fcfcfb"/>
  </g>
  <g id="axes_1">
   <g id="patch_2">
    <path d="M 47.72 231.64 
L 464.4 231.64 
L 464.4 25.44 
L 47.72 25.44 
z
" style="fill: #fcfcfb"/>
   </g>
   <g id="matplotlib.axis_1">
    <g id="xtick_1">
     <g id="line2d_1">
      <path d="M 47.72 231.64 
L 47.72 25.44 
" clip-path="url(#pce112b512b)" style="fill: none; stroke: #e4e3df; stroke-width: 0.8; stroke-linecap: square"/>
     </g>
     <g id="line2d_2">
      <defs>
       <path id="m564765c69c" d="M 0 0 
L 0 3.5 
" style="stroke: #52514e; stroke-width: 0.8"/>
      </defs>
      <g>
       <use xlink:href="#m564765c69c" x="47.72" y="231.64" style="fill: #52514e; stroke: #52514e; stroke-width: 0.8"/>
      </g>
     </g>
     <g id="text_1">
      <text style="font-size: 10px; font-family: 'DejaVu Sans', 'Bitstream Vera Sans', 'Computer Modern Sans Serif', 'Lucida Grande', 'Verdana', 'Geneva', 'Lucid', 'Arial', 'Helvetica', 'Avant Garde', sans-serif; text-anchor: middle; fill: #52514e" x="47.72" y="246.238437" transform="rotate(-0 47.72 246.238437)">0</text>
     </g>
    </g>
    <g id="xtick_2">
     <g id="line2d_3">
      <path d="M 123.48 231.64 
L 123.48 25.44 
" clip-path="url(#pce112b512b)" style="fill: none; stroke: #e4e3df; stroke-width: 0.8; stroke-linecap: square"/>
     </g>
     <g id="line2d_4">
      <g>
       <use xlink:href="#m564765c69c" x="123.48" y="231.64" style="fill: #52514e; stroke: #52514e; stroke-width: 0.8"/>
      </g>
     </g>
     <g id="text_2">
      <text style="font-size: 10px; font-family: 'DejaVu Sans', 'Bitstream Vera Sans', 'Computer Modern Sans Serif', 'Lucida Grande', 'Verdana', 'Geneva', 'Lucid', 'Arial', 'Helvetica', 'Avant Garde', sans-serif; text-anchor: middle; fill: #52514e" x="123.48" y="246.238437" transform="rotate(-0 123.48 246.238437)">2</text>
     </g>
    </g>
    <g id="xtick_3">
     <g id="line2d_5">
      <path d="M 199.24 231.64 
L 199.24 25.44 
" clip-path="url(#pce112b512b)" style="fill: none; stroke: #e4e3df; stroke-width: 0.8; stroke-linecap: square"/>
     </g>
     <g id="line2d_6">
      <g>
       <use xlink:href="#m564765c69c" x="199.24" y="231.64" style="fill: #52514e; stroke: #52514e; stroke-width: 0.8"/>
      </g>
     </g>
     <g id="text_3">
      <text style="font-size: 10px; font-family: 'DejaVu Sans', 'Bitstream Vera Sans', 'Computer Modern Sans Serif', 'Lucida Grande', 'Verdana', 'Geneva', 'Lucid', 'Arial', 'Helvetica', 'Avant Garde', sans-serif; text-anchor: middle; fill: #52514e" x="199.24" y="246.238437" transform="rotate(-0 199.24 246.238437)">4</text>
     </g>
    </g>
    <g id="xtick_4">
     <g id="line2d_7">
      <path d="M 275 231.64 
L 275 25.44 
" clip-path="url(#pce112b512b)" style="fill: none; stroke: #e4e3df; stroke-width: 0.8; stroke-linecap: square"/>
     </g>
     <g id="line2d_8">
      <g>
       <use xlink:href="#m564765c69c" x="275" y="231.64" style="fill: #52514e; stroke: #52514e; stroke-width: 0.8"/>
      </g>
     </g>
     <g id="text_4">
      <text style="font-size: 10px; font-family: 'DejaVu Sans', 'Bitstream Vera Sans', 'Computer Modern Sans Serif', 'Lucida Grande', 'Verdana', 'Geneva', 'Lucid', 'Arial', 'Helvetica', 'Avant Garde', sans-serif; text-anchor: middle; fill: #52514e" x="275" y="246.238437" transform="rotate(-0 275 246.238437)">6</text>
     </g>
    </g>
    <g id="xtick_5">
     <g id="line2d_9">
      <path d="M 350.76 231.64 
L 350.76 25.44 
" clip-path="url(#pce112b512b)" style="fill: none; stroke: #e4e3df; stroke-width: 0.8; stroke-linecap: square"/>
     </g>
     <g id="line2d_10">
      <g>
       <use xlink:href="#m564765c69c" x="350.76" y="231.64" style="fill: #52514e; stroke: #52514e; stroke-width: 0.8"/>
      </g>
     </g>
     <g id="text_5">
      <text style="font-size: 10px; font-family: 'DejaVu Sans', 'Bitstream Vera Sans', 'Computer Modern Sans Serif', 'Lucida Grande', 'Verdana', 'Geneva', 'Lucid', 'Arial', 'Helvetica', 'Avant Garde', sans-serif; text-anchor: middle; fill: #52514e" x="350.76" y="246.238437" transform="rotate(-0 350.76 246.238437)">8</text>
     </g>
    </g>
    <g id="xtick_6">
     <g id="line2d_11">
      <path d="M 426.52 231.64 
L 426.52 25.44 
" clip-path="url(#pce112b512b)" style="fill: none; stroke: #e4e3df; stroke-width: 0.8; stroke-linecap: square"/>
     </g>
     <g id="line2d_12">
      <g>
       <use xlink:href="#m564765c69c" x="426.52" y="231.64" style="fill: #52514e; stroke: #52514e; stroke-width: 0.8"/>
      </g>
     </g>
     <g id="text_6">
      <text style="font-size: 10px; font-family: 'DejaVu Sans', 'Bitstream Vera Sans', 'Computer Modern Sans Serif', 'Lucida Grande', 'Verdana', 'Geneva', 'Lucid', 'Arial', 'Helvetica', 'Avant Garde', sans-serif; text-anchor: middle; fill: #52514e" x="426.52" y="246.238437" transform="rotate(-0 426.52 246.238437)">10</text>
     </g>
    </g>
    <g id="text_7">
     <text style="font-size: 10px; font-family: 'DejaVu Sans', 'Bitstream Vera Sans', 'Computer Modern Sans Serif', 'Lucida Grande', 'Verdana', 'Geneva', 'Lucid', 'Arial', 'Helvetica', 'Avant Garde', sans-serif; text-anchor: middle; fill: #0b0b0b" x="256.06" y="259.916562" transform="rotate(-0 256.06 259.916562)">capital per worker k</text>
    </g>
   </g>
   <g id="matplotlib.axis_2">
    <g id="ytick_1">
     <g id="line2d_13">
      <path d="M 47.72 231.64 
L 464.4 231.64 
" clip-path="url(#pce112b512b)" style="fill: none; stroke: #e4e3df; stroke-width: 0.8; stroke-linecap: square"/>
     </g>
     <g id="line2d_14">
      <defs>
       <path id="mfb8445396a" d="M 0 0 
L -3.5 0 
" style="stroke: #52514e; stroke-width: 0.8"/>
      </defs>
      <g>
       <use xlink:href="#mfb8445396a" x="47.72" y="231.64" style="fill: #52514e; stroke: #52514e; stroke-width: 0.8"/>
      </g>
     </g>
     <g id="text_8">
      <text style="font-size: 10px; font-family: 'DejaVu Sans', 'Bitstream Vera Sans', 'Computer Modern Sans Serif', 'Lucida Grande', 'Verdana', 'Geneva', 'Lucid', 'Arial', 'Helvetica', 'Avant Garde', sans-serif; text-anchor: end; fill: #52514e" x="40.72" y="235.439219" transform="rotate(-0 40.72 235.439219)">0.0</text>
     </g>
    </g>
    <g id="ytick_2">
     <g id="line2d_15">
      <path d="M 47.72 198.381935 
L 464.4 198.381935 
" clip-path="url(#pce112b512b)" style="fill: none; stroke: #e4e3df; stroke-width: 0.8; stroke-linecap: square"/>
     </g>
     <g id="line2d_16">
      <g>
       <use xlink:href="#mfb8445396a" x="47.72" y="198.381935" style="fill: #52514e; stroke: #52514e; stroke-width: 0.8"/>
      </g>
     </g>
     <g id="text_9">
      <text style="font-size: 10px; font-family: 'DejaVu Sans', 'Bitstream Vera Sans', 'Computer Modern Sans Serif', 'Lucida Grande', 'Verdana', 'Geneva', 'Lucid', 'Arial', 'Helvetica', 'Avant Garde', sans-serif; text-anchor: end; fill: #52514e" x="40.72" y="202.181154" transform="rotate(-0 40.72 202.181154)">0.1</text>
     </g>
    </g>
    <g id="ytick_3">
     <g id="line2d_17">
      <path d="M 47.72 165.123871 
L 464.4 165.123871 
" clip-path="url(#pce112b512b)" style="fill: none; stroke: #e4e3df; stroke-width: 0.8; stroke-linecap: square"/>
     </g>
     <g id="line2d_18">
      <g>
       <use xlink:href="#mfb8445396a" x="47.72" y="165.123871" style="fill: #52514e; stroke: #52514e; stroke-width: 0.8"/>
      </g>
     </g>
     <g id="text_10">
      <text style="font-size: 10px; font-family: 'DejaVu Sans', 'Bitstream Vera Sans', 'Computer Modern Sans Serif', 'Lucida Grande', 'Verdana', 'Geneva', 'Lucid', 'Arial', 'Helvetica', 'Avant Garde', sans-serif; text-anchor: end; fill: #52514e" x="40.72" y="168.92309" transform="rotate(-0 40.72 168.92309)">0.2</text>
     </g>
    </g>
    <g id="ytick_4">
     <g id="line2d_19">
      <path d="M 47.72 131.865806 
L 464.4 131.865806 
" clip-path="url(#pce112b512b)" style="fill: none; stroke: #e4e3df; stroke-width: 0.8; stroke-linecap: square"/>
     </g>
     <g id="line2d_20">
      <g>
       <use xlink:href="#mfb8445396a" x="47.72" y="131.865806" style="fill: #52514e; stroke: #52514e; stroke-width: 0.8"/>
      </g>
     </g>
     <g id="text_11">
      <text style="font-size: 10px; font-family: 'DejaVu Sans', 'Bitstream Vera Sans', 'Computer Modern Sans Serif', 'Lucida Grande', 'Verdana', 'Geneva', 'Lucid', 'Arial', 'Helvetica', 'Avant Garde', sans-serif; text-anchor: end; fill: #52514e" x="40.72" y="135.665025" transform="rotate(-0 40.72 135.665025)">0.3</text>
     </g>
    </g>
    <g id="ytick_5">
     <g id="line2d_21">
      <path d="M 47.72 98.607742 
L 464.4 98.607742 
" clip-path="url(#pce112b512b)" style="fill: none; stroke: #e4e3df; stroke-width: 0.8; stroke-linecap: square"/>
     </g>
     <g id="line2d_22">
      <g>
       <use xlink:href="#mfb8445396a" x="47.72" y="98.607742" style="fill: #52514e; stroke: #52514e; stroke-width: 0.8"/>
      </g>
     </g>
     <g id="text_12">
      <text style="font-size: 10px; font-family: 'DejaVu Sans', 'Bitstream Vera Sans', 'Computer Modern Sans Serif', 'Lucida Grande', 'Verdana', 'Geneva', 'Lucid', 'Arial', 'Helvetica', 'Avant Garde', sans-serif; text-anchor: end; fill: #52514e" x="40.72" y="102.406961" transform="rotate(-0 40.72 102.406961)">0.4</text>
     </g>
    </g>
    <g id="ytick_6">
     <g id="line2d_23">
      <path d="M 47.72 65.349677 
L 464.4 65.349677 
" clip-path="url(#pce112b512b)" style="fill: none; stroke: #e4e3df; stroke-width: 0.8; stroke-linecap: square"/>
     </g>
     <g id="line2d_24">
      <g>
       <use xlink:href="#mfb8445396a" x="47.72" y="65.349677" style="fill: #52514e; stroke: #52514e; stroke-width: 0.8"/>
      </g>
     </g>
     <g id="text_13">
      <text style="font-size: 10px; font-family: 'DejaVu Sans', 'Bitstream Vera Sans', 'Computer Modern Sans Serif', 'Lucida Grande', 'Verdana', 'Geneva', 'Lucid', 'Arial', 'Helvetica', 'Avant Garde', sans-serif; text-anchor: end; fill: #52514e" x="40.72" y="69.148896" transform="rotate(-0 40.72 69.148896)">0.5</text>
     </g>
    </g>
    <g id="ytick_7">
     <g id="line2d_25">
      <path d="M 47.72 32.091613 
L 464.4 32.091613 
" clip-path="url(#pce112b512b)" style="fill: none; stroke: #e4e3df; stroke-width: 0.8; stroke-linecap: square"/>
     </g>
     <g id="line2d_26">
      <g>
       <use xlink:href="#mfb8445396a" x="47.72" y="32.091613" style="fill: #52514e; stroke: #52514e; stroke-width: 0.8"/>
      </g>
     </g>
     <g id="text_14">
      <text style="font-size: 10px; font-family: 'DejaVu Sans', 'Bitstream Vera Sans', 'Computer Modern Sans Serif', 'Lucida Grande', 'Verdana', 'Geneva', 'Lucid', 'Arial', 'Helvetica', 'Avant Garde', sans-serif; text-anchor: end; fill: #52514e" x="40.72" y="35.890832" transform="rotate(-0 40.72 35.890832)">0.6</text>
     </g>
    </g>
    <g id="text_15">
     <text style="font-size: 10px; font-family: 'DejaVu Sans', 'Bitstream Vera Sans', 'Computer Modern Sans Serif', 'Lucida Grande', 'Verdana', 'Geneva', 'Lucid', 'Arial', 'Helvetica', 'Avant Garde', sans-serif; text-anchor: middle; fill: #0b0b0b" x="18.737188" y="128.54" transform="rotate(-90 18.737188 128.54)">investment per worker</text>
    </g>
   </g>
   <g id="line2d_27">
    <path d="M 47.72 231.64 
L 48.55503 212.989477 
L 49.39006 208.141814 
L 50.22509 204.741291 
L 51.06012 202.03414 
L 52.73018 197.749751 
L 54.40024 194.338954 
L 56.070301 191.458666 
L 57.740361 188.940962 
L 60.245451 185.643855 
L 62.750541 182.761802 
L 65.255631 180.184621 
L 68.595752 177.10554 
L 71.935872 174.339685 
L 76.111022 171.219546 
L 80.286172 168.392133 
L 85.296353 165.30208 
L 90.306533 162.475845 
L 96.151743 159.446126 
L 102.831984 156.26876 
L 109.512224 153.33883 
L 117.027495 150.285101 
L 125.377796 147.140917 
L 134.563126 143.932757 
L 144.583487 140.681419 
L 155.438878 137.403116 
L 167.129299 134.110419 
L 179.654749 130.813032 
L 193.01523 127.518417 
L 208.045772 124.045165 
L 223.911343 120.607062 
L 241.446974 117.039369 
L 259.817635 113.525762 
L 279.858357 109.91701 
L 301.569138 106.234801 
L 324.94998 102.497147 
L 350.000882 98.718917 
L 376.721844 94.912328 
L 405.947896 90.978003 
L 436.844008 87.045096 
L 464.4 83.709453 
L 464.4 83.709453 
" clip-path="url(#pce112b512b)" style="fill: none; stroke-dasharray: 7.4,3.2; stroke-dashoffset: 0; stroke: #2a78d6; stroke-width: 2"/>
   </g>
   <g id="line2d_28">
    <path d="M 47.72 231.64 
L 48.55503 208.326846 
L 49.39006 202.267267 
L 50.22509 198.016614 
L 51.06012 194.632675 
L 52.73018 189.277188 
L 54.40024 185.013693 
L 56.070301 181.413333 
L 57.740361 178.266202 
L 60.245451 174.144819 
L 62.750541 170.542253 
L 65.255631 167.320777 
L 68.595752 163.471925 
L 71.935872 160.014606 
L 75.275992 156.862259 
L 79.451142 153.261751 
L 83.626293 149.964743 
L 88.636473 146.330044 
L 93.646653 142.981185 
L 99.491864 139.369065 
L 105.337074 136.019563 
L 112.017315 132.458364 
L 118.697555 129.136034 
L 126.212826 125.638915 
L 134.563126 122.005946 
L 143.748457 118.269436 
L 153.768818 114.455834 
L 163.789178 110.875498 
L 174.644569 107.222285 
L 186.33499 103.514063 
L 198.860441 99.765583 
L 213.055952 95.759827 
L 228.086493 91.761078 
L 243.952064 87.774394 
L 260.652665 83.803699 
L 279.023327 79.66892 
L 298.229018 75.574068 
L 319.10477 71.354041 
L 341.650581 67.032893 
L 365.031423 62.779181 
L 390.082325 58.447541 
L 416.803287 54.054113 
L 445.194309 49.612637 
L 464.4 46.726817 
L 464.4 46.726817 
" clip-path="url(#pce112b512b)" style="fill: none; stroke: #2a78d6; stroke-width: 2; stroke-linecap: square"/>
   </g>
   <g id="line2d_29">
    <path d="M 47.72 231.64 
L 464.4 12.136774 
L 464.4 12.136774 
" clip-path="url(#pce112b512b)" style="fill: none; stroke: #eb6834; stroke-width: 2; stroke-linecap: square"/>
   </g>
   <g id="line2d_30">
    <defs>
     <path id="mf4ea177def" d="M 0 3 
C 0.795609 3 1.55874 2.683901 2.12132 2.12132 
C 2.683901 1.55874 3 0.795609 3 0 
C 3 -0.795609 2.683901 -1.55874 2.12132 -2.12132 
C 1.55874 -2.683901 0.795609 -3 0 -3 
C -0.795609 -3 -1.55874 -2.683901 -2.12132 -2.12132 
C -2.683901 -1.55874 -3 -0.795609 -3 0 
C -3 0.795609 -2.683901 1.55874 -2.12132 2.12132 
C -1.55874 2.683901 -0.795609 3 0 3 
z
" style="stroke: #0b0b0b"/>
    </defs>
    <g clip-path="url(#pce112b512b)">
     <use xlink:href="#mf4ea177def" x="278.250339" y="110.198719" style="fill: #0b0b0b; stroke: #0b0b0b"/>
     <use xlink:href="#mf4ea177def" x="369.895943" y="61.92065" style="fill: #0b0b0b; stroke: #0b0b0b"/>
    </g>
   </g>
   <g id="patch_3">
    <path d="M 47.72 231.64 
L 47.72 25.44 
" style="fill: none; stroke: #52514e; stroke-width: 0.8; stroke-linejoin: miter; stroke-linecap: square"/>
   </g>
   <g id="patch_4">
    <path d="M 47.72 231.64 
L 464.4 231.64 
" style="fill: none; stroke: #52514e; stroke-width: 0.8; stroke-linejoin: miter; stroke-linecap: square"/>
   </g>
   <g id="patch_5">
    <path d="M 278.250339 110.198719 
Q 278.250339 95.018559 278.250339 80.956433 
" style="fill: none; stroke: #1baf7a; stroke-linecap: round"/>
    <path d="M 276.250339 84.956433 
L 278.250339 80.956433 
L 280.250339 84.956433 
" style="fill: none; stroke: #1baf7a; stroke-linecap: round"/>
   </g>
   <g id="text_16">
    <text style="font-size: 8.5px; font-family: 'DejaVu Sans', 'Bitstream Vera Sans', 'Computer Modern Sans Serif', 'Lucida Grande', 'Verdana', 'Geneva', 'Lucid', 'Arial', 'Helvetica', 'Avant Garde', sans-serif; text-anchor: start; fill: #1baf7a" x="285.826339" y="141.843226" transform="rotate(-0 285.826339 141.843226)">impact: Δk̇ = (s₁−s₀) f(k) = 0.091</text>
   </g>
   <g id="patch_6">
    <path d="M 280.250052 221.662581 
Q 324.073071 221.662581 366.778057 221.662581 
" style="fill: none; stroke: #0b0b0b; stroke-linecap: round"/>
    <path d="M 362.778057 219.662581 
L 366.778057 221.662581 
L 362.778057 223.662581 
" style="fill: none; stroke: #0b0b0b; stroke-linecap: round"/>
   </g>
   <g id="text_17">
    <text style="font-size: 9px; font-family: 'DejaVu Sans', 'Bitstream Vera Sans', 'Computer Modern Sans Serif', 'Lucida Grande', 'Verdana', 'Geneva', 'Lucid', 'Arial', 'Helvetica', 'Avant Garde', sans-serif; text-anchor: middle; fill: #0b0b0b" x="324.073141" y="216.673871" transform="rotate(-0 324.073141 216.673871)">k_ss: 6.09 → 8.51</text>
   </g>
   <g id="text_18">
    <text style="font-size: 10.5px; font-family: 'DejaVu Sans', 'Bitstream Vera Sans', 'Computer Modern Sans Serif', 'Lucida Grande', 'Verdana', 'Geneva', 'Lucid', 'Arial', 'Helvetica', 'Avant Garde', sans-serif; text-anchor: start; fill: #0b0b0b" x="47.72" y="19.44" transform="rotate(-0 47.72 19.44)">A higher s rotates the curve up; k_ss rises 40%, k itself cannot jump</text>
   </g>
   <g id="legend_1">
    <g id="line2d_31">
     <path d="M 55.37 36.573672 
L 63.87 36.573672 
L 72.37 36.573672 
" style="fill: none; stroke-dasharray: 7.4,3.2; stroke-dashoffset: 0; stroke: #2a78d6; stroke-width: 2"/>
    </g>
    <g id="text_19">
     <text style="font-size: 8.5px; font-family: 'DejaVu Sans', 'Bitstream Vera Sans', 'Computer Modern Sans Serif', 'Lucida Grande', 'Verdana', 'Geneva', 'Lucid', 'Arial', 'Helvetica', 'Avant Garde', sans-serif; text-anchor: start" x="79.17" y="39.548672" transform="rotate(-0 79.17 39.548672)">before: s₀ f(k), s₀ = 0.20</text>
    </g>
    <g id="line2d_32">
     <path d="M 55.37 49.050078 
L 63.87 49.050078 
L 72.37 49.050078 
" style="fill: none; stroke: #2a78d6; stroke-width: 2; stroke-linecap: square"/>
    </g>
    <g id="text_20">
     <text style="font-size: 8.5px; font-family: 'DejaVu Sans', 'Bitstream Vera Sans', 'Computer Modern Sans Serif', 'Lucida Grande', 'Verdana', 'Geneva', 'Lucid', 'Arial', 'Helvetica', 'Avant Garde', sans-serif; text-anchor: start" x="79.17" y="52.025078" transform="rotate(-0 79.17 52.025078)">after: s₁ f(k), s₁ = 0.25</text>
    </g>
    <g id="line2d_33">
     <path d="M 55.37 61.526484 
L 63.87 61.526484 
L 72.37 61.526484 
" style="fill: none; stroke: #eb6834; stroke-width: 2; stroke-linecap: square"/>
    </g>
    <g id="text_21">
     <text style="font-size: 8.5px; font-family: 'DejaVu Sans', 'Bitstream Vera Sans', 'Computer Modern Sans Serif', 'Lucida Grande', 'Verdana', 'Geneva', 'Lucid', 'Arial', 'Helvetica', 'Avant Garde', sans-serif; text-anchor: start" x="79.17" y="64.501484" transform="rotate(-0 79.17 64.501484)">break-even (δ+n) k</text>
    </g>
   </g>
  </g>
 </g>
 <defs>
  <clipPath id="pce112b512b">
   <rect x="47.72" y="25.44" width="416.68" height="206.2"/>
  </clipPath>
 </defs>
</svg>
