<?xml version="1.0" encoding="utf-8" standalone="no"?>
<!DOCTYPE svg PUBLIC "-//W3C//DTD SVG 1.1//EN"
  "http://www.w3.org/Graphics/SVG/1.1/DTD/svg11.dtd">
<svg xmlns:xlink="http://www.w3.org/1999/xlink" width="504pt" height="273.6pt" viewBox="0 0 504 273.6" xmlns="http://www.w3.org/2000/svg" version="1.1">
 <metadata>
  <rdf:RDF xmlns:dc="http://purl.org/dc/elements/1.1/" xmlns:cc="http://creativecommons.org/ns#" xmlns:rdf="http://www.w3.org/1999/02/22-rdf-syntax-ns#">
   <cc:Work>
    <dc:type rdf:resource="http://purl.org/dc/dcmitype/StillImage"/>
    <dc:date>2026-09-28T07:03:01.012118</dc:date>
    <dc:format>image/svg+xml</dc:format>
    <dc:creator>
     <cc:Agent>
      <dc:title>Matplotlib v3.10.8, https://matplotlib.org/</dc:title>
     </cc:Agent>
    </dc:creator>
   </cc:Work>
  </rdf:RDF>
 </metadata>
 <defs>
  <style type="text/css">*{stroke-linejoin: round; stroke-linecap: butt}</style>
 </defs>
 <g id="figure_1">
  <g id="patch_1">
   <path d="M 0 273.6 
L 504 273.6 
L 504 0 
L 0 0 
z
" style="fill: #fcfcfb"/>
  </g>
  <g id="axes_1">
   <g id="patch_2">
    <path d="M 44.57 231.64 
L 486.81 231.64 
L 486.81 25.44 
L 44.57 25.44 
z
" style="fill: #fcfcfb"/>
   </g>
   <g id="matplotlib.axis_1">
    <g id="xtick_1">
     <g id="line2d_1">
      <path d="M 44.57 231.64 
L 44.57 25.44 
" clip-path="url(#p69c4ea887d)" style="fill: none; stroke: #e4e3df; stroke-width: 0.8; stroke-linecap: square"/>
     </g>
     <g id="line2d_2">
      <defs>
       <path id="m2bf4cf3f20" d="M 0 0 
L 0 3.5 
" style="stroke: #52514e; stroke-width: 0.8"/>
      </defs>
      <g>
       <use xlink:href="#m2bf4cf3f20" x="44.57" y="231.64" style="fill: #52514e; stroke: #52514e; stroke-width: 0.8"/>
      </g>
     </g>
     <g id="text_1">
      <text style="font-size: 10px; font-family: 'DejaVu Sans', 'Bitstream Vera Sans', 'Computer Modern Sans Serif', 'Lucida Grande', 'Verdana', 'Geneva', 'Lucid', 'Arial', 'Helvetica', 'Avant Garde', sans-serif; text-anchor: middle; fill: #52514e" x="44.57" y="246.238437" transform="rotate(-0 44.57 246.238437)">0</text>
     </g>
    </g>
    <g id="xtick_2">
     <g id="line2d_3">
      <path d="M 99.85 231.64 
L 99.85 25.44 
" clip-path="url(#p69c4ea887d)" style="fill: none; stroke: #e4e3df; stroke-width: 0.8; stroke-linecap: square"/>
     </g>
     <g id="line2d_4">
      <g>
       <use xlink:href="#m2bf4cf3f20" x="99.85" y="231.64" style="fill: #52514e; stroke: #52514e; stroke-width: 0.8"/>
      </g>
     </g>
     <g id="text_2">
      <text style="font-size: 10px; font-family: 'DejaVu Sans', 'Bitstream Vera Sans', 'Computer Modern Sans Serif', 'Lucida Grande', 'Verdana', 'Geneva', 'Lucid', 'Arial', 'Helvetica', 'Avant Garde', sans-serif; text-anchor: middle; fill: #52514e" x="99.85" y="246.238437" transform="rotate(-0 99.85 246.238437)">2</text>
     </g>
    </g>
    <g id="xtick_3">
     <g id="line2d_5">
      <path d="M 155.13 231.64 
L 155.13 25.44 
" clip-path="url(#p69c4ea887d)" style="fill: none; stroke: #e4e3df; stroke-width: 0.8; stroke-linecap: square"/>
     </g>
     <g id="line2d_6">
      <g>
       <use xlink:href="#m2bf4cf3f20" x="155.13" y="231.64" style="fill: #52514e; stroke: #52514e; stroke-width: 0.8"/>
      </g>
     </g>
     <g id="text_3">
      <text style="font-size: 10px; font-family: 'DejaVu Sans', 'Bitstream Vera Sans', 'Computer Modern Sans Serif', 'Lucida Grande', 'Verdana', 'Geneva', 'Lucid', 'Arial', 'Helvetica', 'Avant Garde', sans-serif; text-anchor: middle; fill: #52514e" x="155.13" y="246.238437" transform="rotate(-0 155.13 246.238437)">4</text>
     </g>
    </g>
    <g id="xtick_4">
     <g id="line2d_7">
      <path d="M 210.41 231.64 
L 210.41 25.44 
" clip-path="url(#p69c4ea887d)" style="fill: none; stroke: #e4e3df; stroke-width: 0.8; stroke-linecap: square"/>
     </g>
     <g id="line2d_8">
      <g>
       <use xlink:href="#m2bf4cf3f20" x="210.41" y="231.64" style="fill: #52514e; stroke: #52514e; stroke-width: 0.8"/>
      </g>
     </g>
     <g id="text_4">
      <text style="font-size: 10px; font-family: 'DejaVu Sans', 'Bitstream Vera Sans', 'Computer Modern Sans Serif', 'Lucida Grande', 'Verdana', 'Geneva', 'Lucid', 'Arial', 'Helvetica', 'Avant Garde', sans-serif; text-anchor: middle; fill: #52514e" x="210.41" y="246.238437" transform="rotate(-0 210.41 246.238437)">6</text>
     </g>
    </g>
    <g id="xtick_5">
     <g id="line2d_9">
      <path d="M 265.69 231.64 
L 265.69 25.44 
" clip-path="url(#p69c4ea887d)" style="fill: none; stroke: #e4e3df; stroke-width: 0.8; stroke-linecap: square"/>
     </g>
     <g id="line2d_10">
      <g>
       <use xlink:href="#m2bf4cf3f20" x="265.69" y="231.64" style="fill: #52514e; stroke: #52514e; stroke-width: 0.8"/>
      </g>
     </g>
     <g id="text_5">
      <text style="font-size: 10px; font-family: 'DejaVu Sans', 'Bitstream Vera Sans', 'Computer Modern Sans Serif', 'Lucida Grande', 'Verdana', 'Geneva', 'Lucid', 'Arial', 'Helvetica', 'Avant Garde', sans-serif; text-anchor: middle; fill: #52514e" x="265.69" y="246.238437" transform="rotate(-0 265.69 246.238437)">8</text>
     </g>
    </g>
    <g id="xtick_6">
     <g id="line2d_11">
      <path d="M 320.97 231.64 
L 320.97 25.44 
" clip-path="url(#p69c4ea887d)" style="fill: none; stroke: #e4e3df; stroke-width: 0.8; stroke-linecap: square"/>
     </g>
     <g id="line2d_12">
      <g>
       <use xlink:href="#m2bf4cf3f20" x="320.97" y="231.64" style="fill: #52514e; stroke: #52514e; stroke-width: 0.8"/>
      </g>
     </g>
     <g id="text_6">
      <text style="font-size: 10px; font-family: 'DejaVu Sans', 'Bitstream Vera Sans', 'Computer Modern Sans Serif', 'Lucida Grande', 'Verdana', 'Geneva', 'Lucid', 'Arial', 'Helvetica', 'Avant Garde', sans-serif; text-anchor: middle; fill: #52514e" x="320.97" y="246.238437" transform="rotate(-0 320.97 246.238437)">10</text>
     </g>
    </g>
    <g id="xtick_7">
     <g id="line2d_13">
      <path d="M 376.25 231.64 
L 376.25 25.44 
" clip-path="url(#p69c4ea887d)" style="fill: none; stroke: #e4e3df; stroke-width: 0.8; stroke-linecap: square"/>
     </g>
     <g id="line2d_14">
      <g>
       <use xlink:href="#m2bf4cf3f20" x="376.25" y="231.64" style="fill: #52514e; stroke: #52514e; stroke-width: 0.8"/>
      </g>
     </g>
     <g id="text_7">
      <text style="font-size: 10px; font-family: 'DejaVu Sans', 'Bitstream Vera Sans', 'Computer Modern Sans Serif', 'Lucida Grande', 'Verdana', 'Geneva', 'Lucid', 'Arial', 'Helvetica', 'Avant Garde', sans-serif; text-anchor: middle; fill: #52514e" x="376.25" y="246.238437" transform="rotate(-0 376.25 246.238437)">12</text>
     </g>
    </g>
    <g id="xtick_8">
     <g id="line2d_15">
      <path d="M 431.53 231.64 
L 431.53 25.44 
" clip-path="url(#p69c4ea887d)" style="fill: none; stroke: #e4e3df; stroke-width: 0.8; stroke-linecap: square"/>
     </g>
     <g id="line2d_16">
      <g>
       <use xlink:href="#m2bf4cf3f20" x="431.53" y="231.64" style="fill: #52514e; stroke: #52514e; stroke-width: 0.8"/>
      </g>
     </g>
     <g id="text_8">
      <text style="font-size: 10px; font-family: 'DejaVu Sans', 'Bitstream Vera Sans', 'Computer Modern Sans Serif', 'Lucida Grande', 'Verdana', 'Geneva', 'Lucid', 'Arial', 'Helvetica', 'Avant Garde', sans-serif; text-anchor: middle; fill: #52514e" x="431.53" y="246.238437" transform="rotate(-0 431.53 246.238437)">14</text>
     </g>
    </g>
    <g id="xtick_9">
     <g id="line2d_17">
      <path d="M 486.81 231.64 
L 486.81 25.44 
" clip-path="url(#p69c4ea887d)" style="fill: none; stroke: #e4e3df; stroke-width: 0.8; stroke-linecap: square"/>
     </g>
     <g id="line2d_18">
      <g>
       <use xlink:href="#m2bf4cf3f20" x="486.81" y="231.64" style="fill: #52514e; stroke: #52514e; stroke-width: 0.8"/>
      </g>
     </g>
     <g id="text_9">
      <text style="font-size: 10px; font-family: 'DejaVu Sans', 'Bitstream Vera Sans', 'Computer Modern Sans Serif', 'Lucida Grande', 'Verdana', 'Geneva', 'Lucid', 'Arial', 'Helvetica', 'Avant Garde', sans-serif; text-anchor: middle; fill: #52514e" x="486.81" y="246.238437" transform="rotate(-0 486.81 246.238437)">16</text>
     </g>
    </g>
    <g id="text_10">
     <text style="font-size: 10px; font-family: 'DejaVu Sans', 'Bitstream Vera Sans', 'Computer Modern Sans Serif', 'Lucida Grande', 'Verdana', 'Geneva', 'Lucid', 'Arial', 'Helvetica', 'Avant Garde', sans-serif; text-anchor: middle; fill: #0b0b0b" x="265.69" y="259.916562" transform="rotate(-0 265.69 259.916562)">capital per worker, k (same f, same s)</text>
    </g>
   </g>
   <g id="matplotlib.axis_2">
    <g id="ytick_1">
     <g id="line2d_19">
      <path d="M 44.57 217.576374 
L 486.81 217.576374 
" clip-path="url(#p69c4ea887d)" style="fill: none; stroke: #e4e3df; stroke-width: 0.8; stroke-linecap: square"/>
     </g>
     <g id="line2d_20">
      <defs>
       <path id="m92b67d8117" d="M 0 0 
L -3.5 0 
" style="stroke: #52514e; stroke-width: 0.8"/>
      </defs>
      <g>
       <use xlink:href="#m92b67d8117" x="44.57" y="217.576374" style="fill: #52514e; stroke: #52514e; stroke-width: 0.8"/>
      </g>
     </g>
     <g id="text_11">
      <text style="font-size: 10px; font-family: 'DejaVu Sans', 'Bitstream Vera Sans', 'Computer Modern Sans Serif', 'Lucida Grande', 'Verdana', 'Geneva', 'Lucid', 'Arial', 'Helvetica', 'Avant Garde', sans-serif; text-anchor: end; fill: #52514e" x="37.57" y="221.375592" transform="rotate(-0 37.57 221.375592)">0</text>
     </g>
    </g>
    <g id="ytick_2">
     <g id="line2d_21">
      <path d="M 44.57 179.437754 
L 486.81 179.437754 
" clip-path="url(#p69c4ea887d)" style="fill: none; stroke: #e4e3df; stroke-width: 0.8; stroke-linecap: square"/>
     </g>
     <g id="line2d_22">
      <g>
       <use xlink:href="#m92b67d8117" x="44.57" y="179.437754" style="fill: #52514e; stroke: #52514e; stroke-width: 0.8"/>
      </g>
     </g>
     <g id="text_12">
      <text style="font-size: 10px; font-family: 'DejaVu Sans', 'Bitstream Vera Sans', 'Computer Modern Sans Serif', 'Lucida Grande', 'Verdana', 'Geneva', 'Lucid', 'Arial', 'Helvetica', 'Avant Garde', sans-serif; text-anchor: end; fill: #52514e" x="37.57" y="183.236973" transform="rotate(-0 37.57 183.236973)">2</text>
     </g>
    </g>
    <g id="ytick_3">
     <g id="line2d_23">
      <path d="M 44.57 141.299135 
L 486.81 141.299135 
" clip-path="url(#p69c4ea887d)" style="fill: none; stroke: #e4e3df; stroke-width: 0.8; stroke-linecap: square"/>
     </g>
     <g id="line2d_24">
      <g>
       <use xlink:href="#m92b67d8117" x="44.57" y="141.299135" style="fill: #52514e; stroke: #52514e; stroke-width: 0.8"/>
      </g>
     </g>
     <g id="text_13">
      <text style="font-size: 10px; font-family: 'DejaVu Sans', 'Bitstream Vera Sans', 'Computer Modern Sans Serif', 'Lucida Grande', 'Verdana', 'Geneva', 'Lucid', 'Arial', 'Helvetica', 'Avant Garde', sans-serif; text-anchor: end; fill: #52514e" x="37.57" y="145.098354" transform="rotate(-0 37.57 145.098354)">4</text>
     </g>
    </g>
    <g id="ytick_4">
     <g id="line2d_25">
      <path d="M 44.57 103.160515 
L 486.81 103.160515 
" clip-path="url(#p69c4ea887d)" style="fill: none; stroke: #e4e3df; stroke-width: 0.8; stroke-linecap: square"/>
     </g>
     <g id="line2d_26">
      <g>
       <use xlink:href="#m92b67d8117" x="44.57" y="103.160515" style="fill: #52514e; stroke: #52514e; stroke-width: 0.8"/>
      </g>
     </g>
     <g id="text_14">
      <text style="font-size: 10px; font-family: 'DejaVu Sans', 'Bitstream Vera Sans', 'Computer Modern Sans Serif', 'Lucida Grande', 'Verdana', 'Geneva', 'Lucid', 'Arial', 'Helvetica', 'Avant Garde', sans-serif; text-anchor: end; fill: #52514e" x="37.57" y="106.959734" transform="rotate(-0 37.57 106.959734)">6</text>
     </g>
    </g>
    <g id="ytick_5">
     <g id="line2d_27">
      <path d="M 44.57 65.021896 
L 486.81 65.021896 
" clip-path="url(#p69c4ea887d)" style="fill: none; stroke: #e4e3df; stroke-width: 0.8; stroke-linecap: square"/>
     </g>
     <g id="line2d_28">
      <g>
       <use xlink:href="#m92b67d8117" x="44.57" y="65.021896" style="fill: #52514e; stroke: #52514e; stroke-width: 0.8"/>
      </g>
     </g>
     <g id="text_15">
      <text style="font-size: 10px; font-family: 'DejaVu Sans', 'Bitstream Vera Sans', 'Computer Modern Sans Serif', 'Lucida Grande', 'Verdana', 'Geneva', 'Lucid', 'Arial', 'Helvetica', 'Avant Garde', sans-serif; text-anchor: end; fill: #52514e" x="37.57" y="68.821115" transform="rotate(-0 37.57 68.821115)">8</text>
     </g>
    </g>
    <g id="ytick_6">
     <g id="line2d_29">
      <path d="M 44.57 26.883277 
L 486.81 26.883277 
" clip-path="url(#p69c4ea887d)" style="fill: none; stroke: #e4e3df; stroke-width: 0.8; stroke-linecap: square"/>
     </g>
     <g id="line2d_30">
      <g>
       <use xlink:href="#m92b67d8117" x="44.57" y="26.883277" style="fill: #52514e; stroke: #52514e; stroke-width: 0.8"/>
      </g>
     </g>
     <g id="text_16">
      <text style="font-size: 10px; font-family: 'DejaVu Sans', 'Bitstream Vera Sans', 'Computer Modern Sans Serif', 'Lucida Grande', 'Verdana', 'Geneva', 'Lucid', 'Arial', 'Helvetica', 'Avant Garde', sans-serif; text-anchor: end; fill: #52514e" x="37.57" y="30.682496" transform="rotate(-0 37.57 30.682496)">10</text>
     </g>
    </g>
    <g id="text_17">
     <text style="font-size: 10px; font-family: 'DejaVu Sans', 'Bitstream Vera Sans', 'Computer Modern Sans Serif', 'Lucida Grande', 'Verdana', 'Geneva', 'Lucid', 'Arial', 'Helvetica', 'Avant Garde', sans-serif; text-anchor: middle; fill: #0b0b0b" x="18.765313" y="128.54" transform="rotate(-90 18.765313 128.54)">growth of y (% per year)</text>
    </g>
   </g>
   <g id="line2d_31">
    <path d="M 58.39 34.812727 
L 59.463734 44.756183 
L 60.537469 53.582805 
L 62.684937 68.59888 
L 64.832406 80.936782 
L 66.979875 91.289021 
L 69.127343 100.123344 
L 71.274812 107.768097 
L 73.422281 114.461168 
L 75.569749 120.379509 
L 77.717218 125.657719 
L 79.864687 130.400169 
L 82.012155 134.689144 
L 84.159624 138.590478 
L 86.307093 142.157521 
L 89.528296 146.974863 
L 92.749499 151.254281 
L 95.970702 155.08614 
L 99.191905 158.541144 
L 102.413108 161.675473 
L 105.634311 164.534388 
L 108.855514 167.154794 
L 113.150451 170.329479 
L 117.445388 173.19214 
L 121.740326 175.789265 
L 126.035263 178.158311 
L 131.403935 180.844888 
L 136.772607 183.270623 
L 142.141278 185.473933 
L 148.583684 187.867586 
L 155.02609 190.02844 
L 162.542231 192.300636 
L 170.058371 194.345832 
L 178.648246 196.448974 
L 188.311855 198.564206 
L 197.975464 200.457057 
L 208.712807 202.342087 
L 220.523885 204.193798 
L 233.408697 205.993261 
L 247.367243 207.727192 
L 263.473258 209.498275 
L 280.653008 211.164819 
L 299.980226 212.815643 
L 321.454912 214.423829 
L 345.077068 215.970751 
L 371.920426 217.501806 
L 401.984987 218.987971 
L 435.270752 220.409916 
L 472.851454 221.792765 
L 486.81 222.256565 
L 486.81 222.256565 
" clip-path="url(#p69c4ea887d)" style="fill: none; stroke: #2a78d6; stroke-width: 2; stroke-linecap: square"/>
   </g>
   <g id="line2d_32">
    <path d="M 58.39 48.999296 
L 59.463734 57.52779 
L 61.611203 72.022078 
L 63.758672 83.92464 
L 65.90614 93.912272 
L 68.053609 102.43918 
L 70.201078 109.822784 
L 72.348546 116.292335 
L 74.496015 122.017987 
L 76.643484 127.128974 
L 78.790952 131.725399 
L 80.938421 135.886137 
L 83.08589 139.674265 
L 85.233358 143.140893 
L 88.454561 147.827666 
L 91.675764 151.996315 
L 94.896967 155.73346 
L 98.11817 159.106905 
L 101.339373 162.170564 
L 104.560576 164.967899 
L 108.855514 168.343775 
L 113.150451 171.376039 
L 117.445388 174.117792 
L 121.740326 176.611433 
L 127.108997 179.43122 
L 132.477669 181.97019 
L 137.846341 184.270834 
L 144.288747 186.764559 
L 150.731153 189.010925 
L 158.247293 191.368353 
L 165.763434 193.486372 
L 174.353308 195.66076 
L 182.943183 197.613788 
L 192.606792 199.588615 
L 203.344135 201.551217 
L 215.155213 203.475376 
L 228.040025 205.341866 
L 241.998571 207.137405 
L 257.030852 208.853551 
L 274.210602 210.587809 
L 293.53782 212.302456 
L 315.012506 213.969878 
L 338.634662 215.571202 
L 364.404286 217.094645 
L 393.395113 218.585465 
L 426.680877 220.065596 
L 463.187845 221.464148 
L 486.81 222.267273 
L 486.81 222.267273 
" clip-path="url(#p69c4ea887d)" style="fill: none; stroke-dasharray: 7.4,3.2; stroke-dashoffset: 0; stroke: #eb6834; stroke-width: 2"/>
   </g>
   <g id="line2d_33">
    <path d="M 44.57 217.576374 
L 486.81 217.576374 
" clip-path="url(#p69c4ea887d)" style="fill: none; stroke: #52514e; stroke-width: 0.8; stroke-linecap: square"/>
   </g>
   <g id="line2d_34">
    <defs>
     <path id="m43c8fe3816" d="M 0 3 
C 0.795609 3 1.55874 2.683901 2.12132 2.12132 
C 2.683901 1.55874 3 0.795609 3 0 
C 3 -0.795609 2.683901 -1.55874 2.12132 -2.12132 
C 1.55874 -2.683901 0.795609 -3 0 -3 
C -0.795609 -3 -1.55874 -2.683901 -2.12132 -2.12132 
C -2.683901 -1.55874 -3 -0.795609 -3 0 
C -3 0.795609 -2.683901 1.55874 -2.12132 2.12132 
C -1.55874 2.683901 -0.795609 3 0 3 
z
" style="stroke: #0b0b0b"/>
    </defs>
    <g clip-path="url(#p69c4ea887d)">
     <use xlink:href="#m43c8fe3816" x="373.328134" y="217.576374" style="fill: #0b0b0b; stroke: #0b0b0b"/>
    </g>
   </g>
   <g id="line2d_35">
    <defs>
     <path id="m0761facf1f" d="M 0 3 
C 0.795609 3 1.55874 2.683901 2.12132 2.12132 
C 2.683901 1.55874 3 0.795609 3 0 
C 3 -0.795609 2.683901 -1.55874 2.12132 -2.12132 
C 1.55874 -2.683901 0.795609 -3 0 -3 
C -0.795609 -3 -1.55874 -2.683901 -2.12132 -2.12132 
C -2.683901 -1.55874 -3 -0.795609 -3 0 
C -3 0.795609 -2.683901 1.55874 -2.12132 2.12132 
C -1.55874 2.683901 -0.795609 3 0 3 
z
" style="stroke: #2a78d6"/>
    </defs>
    <g clip-path="url(#p69c4ea887d)">
     <use xlink:href="#m0761facf1f" x="72.21" y="110.788239" style="fill: #2a78d6; stroke: #2a78d6"/>
    </g>
   </g>
   <g id="line2d_36">
    <g clip-path="url(#p69c4ea887d)">
     <use xlink:href="#m0761facf1f" x="127.49" y="178.914588" style="fill: #2a78d6; stroke: #2a78d6"/>
    </g>
   </g>
   <g id="patch_3">
    <path d="M 44.57 231.64 
L 44.57 25.44 
" style="fill: none; stroke: #52514e; stroke-width: 0.8; stroke-linejoin: miter; stroke-linecap: square"/>
   </g>
   <g id="patch_4">
    <path d="M 44.57 231.64 
L 486.81 231.64 
" style="fill: none; stroke: #52514e; stroke-width: 0.8; stroke-linejoin: miter; stroke-linecap: square"/>
   </g>
   <g id="patch_5">
    <path d="M 375.514123 181.747788 
Q 374.482102 198.662711 373.450082 215.577635 
" style="fill: none; stroke: #52514e; stroke-linecap: round"/>
   </g>
   <g id="text_18">
    <text style="font-size: 9px; font-family: 'DejaVu Sans', 'Bitstream Vera Sans', 'Computer Modern Sans Serif', 'Lucida Grande', 'Verdana', 'Geneva', 'Lucid', 'Arial', 'Helvetica', 'Avant Garde', sans-serif; text-anchor: start" x="307.15" y="175.623892" transform="rotate(-0 307.15 175.623892)">steady state k = 11.9: g_y = 0</text>
   </g>
   <g id="text_19">
    <text style="font-size: 9px; font-family: 'DejaVu Sans', 'Bitstream Vera Sans', 'Computer Modern Sans Serif', 'Lucida Grande', 'Verdana', 'Geneva', 'Lucid', 'Arial', 'Helvetica', 'Avant Garde', sans-serif; text-anchor: start; fill: #2a78d6" x="80.502" y="106.020912" transform="rotate(-0 80.502 106.020912)">k = 1: 5.6%</text>
   </g>
   <g id="text_20">
    <text style="font-size: 9px; font-family: 'DejaVu Sans', 'Bitstream Vera Sans', 'Computer Modern Sans Serif', 'Lucida Grande', 'Verdana', 'Geneva', 'Lucid', 'Arial', 'Helvetica', 'Avant Garde', sans-serif; text-anchor: start; fill: #2a78d6" x="135.782" y="174.147261" transform="rotate(-0 135.782 174.147261)">k = 3: 2.0%</text>
   </g>
   <g id="text_21">
    <text style="font-size: 11px; font-family: 'DejaVu Sans', 'Bitstream Vera Sans', 'Computer Modern Sans Serif', 'Lucida Grande', 'Verdana', 'Geneva', 'Lucid', 'Arial', 'Helvetica', 'Avant Garde', sans-serif; text-anchor: middle" x="265.69" y="19.44" transform="rotate(-0 265.69 19.44)">Under Conjecture 5.1 the poorer economy always grows faster</text>
   </g>
   <g id="legend_1">
    <g id="line2d_37">
     <path d="M 329.315625 37.228594 
L 338.315625 37.228594 
L 347.315625 37.228594 
" style="fill: none; stroke: #2a78d6; stroke-width: 2; stroke-linecap: square"/>
    </g>
    <g id="text_22">
     <text style="font-size: 9px; font-family: 'DejaVu Sans', 'Bitstream Vera Sans', 'Computer Modern Sans Serif', 'Lucida Grande', 'Verdana', 'Geneva', 'Lucid', 'Arial', 'Helvetica', 'Avant Garde', sans-serif; text-anchor: start" x="354.515625" y="40.378594" transform="rotate(-0 354.515625 40.378594)">(5.3.1): g_y ≈ s f′(k) − δα</text>
    </g>
    <g id="line2d_38">
     <path d="M 329.315625 50.689219 
L 338.315625 50.689219 
L 347.315625 50.689219 
" style="fill: none; stroke-dasharray: 7.4,3.2; stroke-dashoffset: 0; stroke: #eb6834; stroke-width: 2"/>
    </g>
    <g id="text_23">
     <text style="font-size: 9px; font-family: 'DejaVu Sans', 'Bitstream Vera Sans', 'Computer Modern Sans Serif', 'Lucida Grande', 'Verdana', 'Geneva', 'Lucid', 'Arial', 'Helvetica', 'Avant Garde', sans-serif; text-anchor: start" x="354.515625" y="53.839219" transform="rotate(-0 354.515625 53.839219)">exact: f(k_{t+1})/f(k_t) − 1</text>
    </g>
   </g>
  </g>
 </g>
 <defs>
  <clipPath id="p69c4ea887d">
   <rect x="44.57" y="25.44" width="442.24" height="206.2"/>
  </clipPath>
 </defs>
</svg>
